<svg xmlns="http://www.w3.org/2000/svg" viewBox="0 0 500 500"><g id="freepik--Banknotes--inject-220"><polygon points="338.98 277.1 256.62 235.52 340.39 68.57 422.75 110.15 338.98 277.1" style="fill:#92E3A9;stroke:#263238;stroke-miterlimit:10"></polygon><path d="M404.47,126.5a11.14,11.14,0,0,1-4.92-15,12.63,12.63,0,0,1,.7-1.18L353,86.48a10,10,0,0,1-.53,1.27,11.13,11.13,0,0,1-14.95,4.92,5.82,5.82,0,0,1-.6-.34L273.66,218.58l.63.28a11.13,11.13,0,0,1,4.92,14.95,10.1,10.1,0,0,1-.71,1.19l47.29,23.87a11.41,11.41,0,0,1,.53-1.27,11.15,11.15,0,0,1,15-4.92,10,10,0,0,1,1.18.71L405.74,127A10,10,0,0,1,404.47,126.5Zm-73.79,62.68a18.24,18.24,0,1,1,24.51-8.06A18.25,18.25,0,0,1,330.68,189.18Z" style="fill:#fff;stroke:#263238;stroke-linecap:round;stroke-linejoin:round"></path><polygon points="337.83 277.46 260.46 227.21 361.81 70.3 439.18 120.55 337.83 277.46" style="fill:#92E3A9;stroke:#263238;stroke-miterlimit:10"></polygon><path d="M419.24,134.83a11.14,11.14,0,0,1-3.28-15.4,13.18,13.18,0,0,1,.83-1.1L372.37,89.47a11.94,11.94,0,0,1-.67,1.21A11.13,11.13,0,0,1,356.3,94c-.19-.12-.37-.27-.56-.4L279.23,212.21c.2.11.4.22.59.35A11.13,11.13,0,0,1,283.1,228a11.87,11.87,0,0,1-.83,1.11l44.42,28.85a13.13,13.13,0,0,1,.67-1.21,11.14,11.14,0,0,1,15.4-3.27,13.18,13.18,0,0,1,1.1.83L420.44,135.5A11.8,11.8,0,0,1,419.24,134.83ZM339.1,189.16a18.25,18.25,0,1,1,25.24-5.37A18.25,18.25,0,0,1,339.1,189.16Z" style="fill:#fff;stroke:#263238;stroke-linecap:round;stroke-linejoin:round"></path><polygon points="336.32 277.73 266.64 217.25 388.74 75.89 458.41 136.36 336.32 277.73" style="fill:#92E3A9;stroke:#263238;stroke-miterlimit:10"></polygon><path d="M436.68,147.74a11.09,11.09,0,0,1-.14-16.68l-40-34.72a11.75,11.75,0,0,1-.83,1.1A11.13,11.13,0,0,1,380,98.55c-.18-.16-.34-.32-.5-.48L287.31,205c.18.14.37.27.54.43a11.09,11.09,0,0,1,.14,16.68l40,34.72a12.67,12.67,0,0,1,.83-1.1,11,11,0,0,1,16.68-.14l92.28-107A9.61,9.61,0,0,1,436.68,147.74ZM349.8,190.46a18.25,18.25,0,1,1,25.74-1.82A18.24,18.24,0,0,1,349.8,190.46Z" style="fill:#fff;stroke:#263238;stroke-linecap:round;stroke-linejoin:round"></path><polygon points="336.11 282.27 275.15 213.03 415.05 89.25 476.01 158.5 336.11 282.27" style="fill:#92E3A9;stroke:#263238;stroke-miterlimit:10"></polygon><path d="M453,166.87a11.14,11.14,0,0,1,1-15.71,10.68,10.68,0,0,1,1.1-.84l-35-39.76a11.06,11.06,0,0,1-16.68,0c-.16-.18-.29-.36-.43-.54L297.27,203.64c.16.17.33.32.48.5a11.13,11.13,0,0,1-1,15.71,12.19,12.19,0,0,1-1.09.84l35,39.76a10,10,0,0,1,1-1,11.12,11.12,0,0,1,15.71,1,10.91,10.91,0,0,1,.84,1.09l105.76-93.72A11.33,11.33,0,0,1,453,166.87Zm-91.81,30.71a18.24,18.24,0,1,1,25.75,1.64A18.25,18.25,0,0,1,361.14,197.58Z" style="fill:#fff;stroke:#263238;stroke-linecap:round;stroke-linejoin:round"></path></g><g id="freepik--credit-card--inject-220"><path d="M318.24,358.73,489.83,287a6,6,0,0,0,3.21-7.81L450.3,176.93a6,6,0,0,0-7.82-3.21L270.89,245.43a6,6,0,0,0-3.21,7.81l42.74,102.28A6,6,0,0,0,318.24,358.73Z" style="fill:#263238;stroke:#263238;stroke-linecap:round;stroke-linejoin:round"></path><rect x="287.73" y="249.96" width="21.23" height="21.23" rx="5" transform="matrix(-0.92, -0.4, 0.4, -0.92, 468.7, 618.19)" style="fill:#fff;stroke:#263238;stroke-miterlimit:10"></rect><rect x="452.85" y="270.28" width="20.95" height="8.67" transform="translate(996.71 349.34) rotate(157.32)" style="fill:#fff;stroke:#263238;stroke-miterlimit:10"></rect><rect x="427.19" y="281" width="20.95" height="8.67" transform="translate(951.51 379.86) rotate(157.32)" style="fill:#fff;stroke:#263238;stroke-miterlimit:10"></rect><rect x="401.53" y="291.73" width="20.95" height="8.67" transform="translate(906.31 410.37) rotate(157.32)" style="fill:#fff;stroke:#263238;stroke-miterlimit:10"></rect><rect x="375.87" y="302.45" width="20.95" height="8.67" transform="translate(861.11 440.88) rotate(157.32)" style="fill:#fff;stroke:#263238;stroke-miterlimit:10"></rect><rect x="350.21" y="313.17" width="20.95" height="8.67" transform="translate(815.91 471.39) rotate(157.32)" style="fill:#fff;stroke:#263238;stroke-miterlimit:10"></rect><rect x="324.55" y="323.89" width="20.95" height="8.67" transform="translate(770.7 501.9) rotate(157.32)" style="fill:#fff;stroke:#263238;stroke-miterlimit:10"></rect><rect x="413.23" y="224.05" width="45.51" height="33.95" rx="3.31" transform="translate(931.19 295.31) rotate(157.32)" style="fill:#fff;stroke:#263238;stroke-miterlimit:10"></rect><rect x="344.71" y="209.62" width="99.69" height="5.06" transform="translate(840.4 255.76) rotate(157.32)" style="fill:#fff;stroke:#263238;stroke-miterlimit:10"></rect></g><g id="freepik--Device--inject-220"><path d="M321.18,65.66v311.5a15.49,15.49,0,0,1-15.48,15.48H171.11a15.49,15.49,0,0,1-15.48-15.48V65.65A15.47,15.47,0,0,1,171.1,50.18h57.77l0,.18c1.44,5.18,4.75,8.55,8.43,8.55h2.11c3.68,0,7-3.37,8.43-8.55l.06-.18H305.7A15.48,15.48,0,0,1,321.18,65.66Z" style="fill:#fff;stroke:#263238;stroke-linecap:round;stroke-linejoin:round"></path><path d="M321.18,141.3V65.66A15.48,15.48,0,0,0,305.7,50.18H248l-.06.18c-1.44,5.18-4.75,8.55-8.43,8.55h-2.11c-3.68,0-7-3.37-8.43-8.55l0-.18H171.1a15.47,15.47,0,0,0-15.47,15.47V141.3Z" style="fill:#92E3A9;stroke:#263238;stroke-miterlimit:10"></path><rect x="179.35" y="242.09" width="117.07" height="49.65" rx="9.6" style="fill:#92E3A9;stroke:#263238;stroke-miterlimit:10"></rect><path d="M321.18,80.15V65.66A15.48,15.48,0,0,0,305.7,50.18H248l-.06.18c-1.44,5.18-4.75,8.55-8.43,8.55h-2.11c-3.68,0-7-3.37-8.43-8.55l0-.18H171.1a15.47,15.47,0,0,0-15.47,15.47v14.5Z" style="fill:#dbdbdb;stroke:#263238;stroke-linecap:round;stroke-linejoin:round"></path><path d="M155.63,374.72v2.44a15.49,15.49,0,0,0,15.48,15.48H305.7a15.49,15.49,0,0,0,15.48-15.48v-2.44Z" style="fill:#dbdbdb;stroke:#263238;stroke-linecap:round;stroke-linejoin:round"></path><path d="M331.71,140.06V109H328.9V69.12a24.56,24.56,0,0,0-24.56-24.55H172.47a24.56,24.56,0,0,0-24.56,24.55v316.5a24.56,24.56,0,0,0,24.56,24.55H304.34a24.56,24.56,0,0,0,24.56-24.55v-219h2.81V148.19H328.9v-8.13Zm-10.53,228a24.56,24.56,0,0,1-24.55,24.56H180.18a24.56,24.56,0,0,1-24.55-24.56V74.73a24.55,24.55,0,0,1,24.55-24.55h48.69l0,.18c1.44,5.18,4.75,8.55,8.43,8.55h2.11c3.68,0,7-3.37,8.43-8.55l.06-.18h48.68a24.55,24.55,0,0,1,24.55,24.55Z" style="fill:#92E3A9;stroke:#263238;stroke-linecap:round;stroke-linejoin:round"></path><path d="M302.37,48H174.44a23.68,23.68,0,0,0-23.68,23.68V383.11a23.68,23.68,0,0,0,23.68,23.68H302.37a23.68,23.68,0,0,0,23.68-23.68V71.63A23.68,23.68,0,0,0,302.37,48Zm18.81,321a23.69,23.69,0,0,1-23.68,23.69H179.31A23.69,23.69,0,0,1,155.63,369V73.85A23.67,23.67,0,0,1,179.3,50.18h49.57l0,.18c1.44,5.18,4.75,8.55,8.43,8.55h2.11c3.68,0,7-3.37,8.43-8.55l.06-.18H297.5a23.68,23.68,0,0,1,23.68,23.68Z" style="fill:#263238;stroke:#263238;stroke-linecap:round;stroke-linejoin:round"></path><path d="M240.2,51.35a2.31,2.31,0,1,0-2.3,2.31A2.3,2.3,0,0,0,240.2,51.35Z" style="fill:#fff"></path><path d="M170.34,60.19c0,2.33-2.62,3.17-2.63,5v.12h2.54V66h-3.39v-.66c0-2.5,2.62-3,2.62-5.16,0-.8-.26-1.22-.9-1.22s-.91.46-.91,1.14v.69h-.81V60.2c0-1.18.54-2,1.74-2S170.34,59,170.34,60.19Z" style="fill:#263238"></path><path d="M174.58,60.18v.19a1.55,1.55,0,0,1-.94,1.6,1.54,1.54,0,0,1,.94,1.6v.6c0,1.18-.56,2-1.75,2s-1.73-.77-1.73-2v-.54h.8v.59c0,.7.29,1.12.91,1.12s.91-.41.91-1.2v-.59c0-.77-.33-1.13-1-1.15h-.46v-.78h.51a.93.93,0,0,0,.93-1.06v-.35c0-.8-.28-1.21-.91-1.21s-.91.44-.91,1.13v.4h-.8v-.35c0-1.19.55-2,1.73-2S174.58,59,174.58,60.18Z" style="fill:#263238"></path><path d="M176.25,60.76v1.07h-.83V60.76Zm0,4.21V66h-.83V65Z" style="fill:#263238"></path><path d="M178,61.46a1.25,1.25,0,0,1,1.15-.64c1,0,1.44.73,1.44,1.83v1.52c0,1.18-.56,2-1.75,2s-1.73-.77-1.73-2v-.52h.8v.57c0,.7.29,1.12.91,1.12s.91-.42.91-1.12v-1.5c0-.7-.29-1.12-.91-1.12a.84.84,0,0,0-.87.83v.18h-.81l.21-4.3h3v.77h-2.28Z" style="fill:#263238"></path><path d="M184.88,60.16v.15h-.81v-.2c0-.7-.28-1.11-.91-1.11s-.94.42-.94,1.25V62a1.24,1.24,0,0,1,1.24-.83c1,0,1.44.72,1.44,1.83v1.18c0,1.18-.58,2-1.77,2s-1.78-.77-1.78-2v-4c0-1.23.56-2,1.78-2S184.88,59,184.88,60.16Zm-2.66,2.9v1.16c0,.7.28,1.12.91,1.12s.92-.42.92-1.12V63.06c0-.7-.3-1.12-.92-1.12S182.22,62.36,182.22,63.06Z" style="fill:#263238"></path><rect x="267.15" y="60.5" width="2.18" height="5.46" style="fill:#263238"></rect><rect x="270.06" y="59.41" width="2.18" height="6.55" style="fill:#263238"></rect><rect x="272.97" y="58.63" width="2.18" height="7.33" style="fill:#263238"></rect><rect x="275.89" y="57.28" width="2.18" height="8.68" style="fill:#263238"></rect><path d="M305.1,65.82H292v-8H305.1Zm-12.38-.73h11.65V58.53H292.72Z" style="fill:#263238"></path><rect x="293.81" y="59.33" width="6.92" height="4.97" style="fill:#263238"></rect><rect x="304.64" y="60.87" width="1.65" height="1.89" style="fill:#263238"></rect><path d="M287.19,64.07a.45.45,0,0,1-.25-.07c-2.67-1.58-4.43-.11-4.51,0a.47.47,0,0,1-.68-.05.48.48,0,0,1,0-.68c.1-.09,2.35-2,5.65-.06a.49.49,0,0,1,.17.67A.47.47,0,0,1,287.19,64.07Z" style="fill:#263238"></path><path d="M288.18,62.43a.43.43,0,0,1-.25-.07c-3.86-2.29-6.45-.08-6.48,0a.49.49,0,0,1-.65-.74s3.16-2.7,7.63,0a.5.5,0,0,1,.17.67A.52.52,0,0,1,288.18,62.43Z" style="fill:#263238"></path><path d="M289.07,60.52a.47.47,0,0,1-.25-.07c-4.88-2.9-8.13-.17-8.27-.05a.48.48,0,0,1-.69,0,.49.49,0,0,1,.05-.68s3.89-3.34,9.41-.06a.49.49,0,0,1,.17.67A.47.47,0,0,1,289.07,60.52Z" style="fill:#263238"></path><path d="M285.72,64.89a1.23,1.23,0,1,1-1.23-1.22A1.23,1.23,0,0,1,285.72,64.89Z" style="fill:#263238"></path><text transform="translate(202.24 190.64)" style="font-size:24.365219116210938px">$80.99</text><path d="M202.91,120.08V103.23H209v1.22h-4.49v6.33h3.66V112h-3.66v7h4.53v1.18Z"></path><path d="M210.64,113.9v-1.2h4.41v1.2Z"></path><path d="M219.5,120.08l-2.85-16.85H218l2.23,13.69,2.54-13.44h1.31l2.6,13.46,2.06-13.71h1.33l-2.72,16.85h-1.23l-2.69-13.9-2.64,13.9Z"></path><path d="M230.72,120.08l3.56-16.85h1.66l3.58,16.85H238l-.83-4.51h-4l-.85,4.51Zm2.62-5.66h3.58l-1.81-9.09Z"></path><path d="M241.56,120.08V103.23h1.58V118.9h4.79v1.18Z"></path><path d="M249.51,120.08V103.23h1.58V118.9h4.79v1.18Z"></path><path d="M257.44,120.08V103.23h6.1v1.22H259v6.33h3.66V112H259v7h4.54v1.18Z"></path><path d="M267.82,120.08V104.45h-3.18v-1.22h7.84v1.22H269.4v15.63Z"></path><path d="M221.71,275v-18h6a5.16,5.16,0,0,1,2.66.62,3.64,3.64,0,0,1,1.55,1.77,7,7,0,0,1,.51,2.82,6.11,6.11,0,0,1-.68,3.18,3.59,3.59,0,0,1-1.86,1.52,7.86,7.86,0,0,1-2.64.42h-1.6V275Zm4-10.4H227a2,2,0,0,0,1.11-.26,1.31,1.31,0,0,0,.5-.8,6.36,6.36,0,0,0,.12-1.35,6.22,6.22,0,0,0-.1-1.21,1.32,1.32,0,0,0-.48-.83,1.8,1.8,0,0,0-1.17-.31h-1.31Z" style="fill:#263238"></path><path d="M232.45,275l3.39-18h4.52l3.35,18h-3.66l-.59-3.79h-2.64L236.2,275Zm4.72-6.17h1.91l-1-7Z" style="fill:#263238"></path><path d="M246.9,275V267.7l-3.41-10.62h3.74l1.71,5.68,1.53-5.68h3.59l-3.35,10.62V275Z" style="fill:#263238"></path></g><g id="freepik--Shield--inject-220"><path d="M146.25,68.92C128.67,61,110.66,51,100.11,34.22c-2.32-3.68-4.12-7.31-5.27-9-1.15,1.74-2.94,5.37-5.26,9C79,51,61,61,43.43,68.92c-.78.36-13.34,4.74-13.33,4.87s2.65,65,22.64,93.46c17.07,24.28,36.72,32.91,42.1,34.91,5.38-2,25-10.63,42.1-34.91,20-28.43,22.64-93.45,22.64-93.46S147,69.28,146.25,68.92Z" style="fill:#92E3A9"></path><path d="M140.72,73.74c-15.69-7.06-31.76-16-41.18-31-2.07-3.29-3.68-6.53-4.7-8.08-1,1.55-2.63,4.79-4.7,8.08C80.73,57.72,64.65,66.68,49,73.74c-.7.31-11.91,4.22-11.91,4.34s2.37,58,20.21,83.41C72.5,183.15,90,190.85,94.84,192.64c4.8-1.79,22.34-9.49,37.57-31.15,17.84-25.37,20.21-83.4,20.21-83.41S141.41,74.05,140.72,73.74Z" style="fill:#fff"></path><circle cx="95.26" cy="118.84" r="40.41" style="fill:#263238;stroke:#263238;stroke-linecap:round;stroke-linejoin:round"></circle><path d="M92.76,131.53h-.37a4.37,4.37,0,0,1-3.32-2L77,110.34a4.36,4.36,0,1,1,7.37-4.65l9,14.28,24.89-27.78A4.36,4.36,0,1,1,124.75,98L96,130.08A4.34,4.34,0,0,1,92.76,131.53Z" style="fill:#92E3A9;stroke:#263238;stroke-miterlimit:10"></path><path d="M107.76,123a115.46,115.46,0,0,0-56.89,41.4c.61,1,1.23,1.93,1.87,2.84,17.07,24.28,36.72,32.91,42.1,34.91,5.38-2,25-10.63,42.1-34.91,11.36-16.15,17.12-44.12,20-65.26C145.58,108.43,129.66,115.82,107.76,123Z" style="opacity:0.18"></path><path d="M146.25,68.92C128.67,61,110.66,51,100.11,34.22c-2.32-3.68-4.12-7.31-5.27-9-1.15,1.74-2.94,5.37-5.26,9C79,51,61,61,43.43,68.92c-.78.36-13.34,4.74-13.33,4.87s2.65,65,22.64,93.46c17.07,24.28,36.72,32.91,42.1,34.91,5.38-2,25-10.63,42.1-34.91,20-28.43,22.64-93.45,22.64-93.46S147,69.28,146.25,68.92Z" style="fill:none;stroke:#263238;stroke-miterlimit:10"></path></g><g id="freepik--Character--inject-220"><path d="M128.67,468.39s4.44,6.11,6.38,6.94,5.55,1.39,6.66,3.89a10.74,10.74,0,0,1,1.12,3.89H115.34s-1.11-3.61,0-5.83a15.48,15.48,0,0,0,1.39-4.44Z" style="fill:#fff;stroke:#263238;stroke-linecap:round;stroke-linejoin:round"></path><path d="M114.87,480.33h27.29a9.3,9.3,0,0,1,.67,2.78H115.34A13.08,13.08,0,0,1,114.87,480.33Z" style="fill:#fff;stroke:#263238;stroke-linecap:round;stroke-linejoin:round"></path><path d="M99.24,474.5l-.55,8.88H85.36a10.5,10.5,0,0,1,.28-5c.83-2.5,1.67-4.72,1.67-4.72Z" style="fill:#fff;stroke:#263238;stroke-linecap:round;stroke-linejoin:round"></path><path d="M98.69,483.38H85.36a10.67,10.67,0,0,1-.09-3.33H98.9Z" style="fill:#fff;stroke:#263238;stroke-linecap:round;stroke-linejoin:round"></path><path d="M139.49,339s-2.22,28.87-2.77,39.14-8.05,90.23-8.05,90.23-10.83,6.67-12.22,6.67-3-96.34-3-96.34L99.24,474.5a17.67,17.67,0,0,1-4.72.83c-2.22,0-7.21-1.66-7.21-1.66L92,358.18V339s28,3.89,35.53,2.78A63.75,63.75,0,0,0,139.49,339Z" style="fill:#263238;stroke:#263238;stroke-linecap:round;stroke-linejoin:round"></path><polyline points="105.63 356.51 111.73 361.23 113.4 378.72" style="fill:none;stroke:gray;stroke-linecap:round;stroke-linejoin:round"></polyline><path d="M103.11,221.72s11.32-1.42,14.65,2.45,4,11.37,6.31,13.17,3.6-.44,4.63,1.9-.65,5.23-.65,5.23.28,11.27-1,11.81-7,.55-7,.55l.93,4.63-14.32.6-1.25-4.84s-10.89-6.32-13.83-11.11-2.24-15.4.7-19.11S103.11,221.72,103.11,221.72Z" style="fill:#fff;stroke:#263238;stroke-linecap:round;stroke-linejoin:round"></path><path d="M128.05,244.47s-6.64-2.09-7-1.1.79,13.63.79,13.63,4.69.54,5.21-.72S128.57,253.47,128.05,244.47Zm-1.4,10.61c-.38,1-3.74.58-3.74.58s-.85-10.18-.57-11,5,.89,5,.89C127.75,252.82,127,254.07,126.65,255.08Z" style="fill:#263238"></path><path d="M120.65,236.79c.35.85.91,1.42,1.25,1.28s.33-.94,0-1.79-.91-1.42-1.25-1.28S120.3,235.94,120.65,236.79Z" style="fill:#263238"></path><path d="M126.91,246.29a2.64,2.64,0,0,1-3.46-1" style="fill:none;stroke:#263238;stroke-linecap:round;stroke-linejoin:round"></path><path d="M120.53,232.85s-1.45-.79-1.62,1.62" style="fill:none;stroke:#263238;stroke-linecap:round;stroke-linejoin:round"></path><path d="M92.28,227c2.94-3.7,10.83-5.28,10.83-5.28s11.32-1.42,14.65,2.45c0,0-6.26-1.58-5.45,1.09s7.3,6.75,5.07,8.33-4.74.38-3.7,2.72,2.34,4.63,1.25,4.84-4.14-2.28-5.44-1.74-2.78,4.52-1.53,6.54a5.71,5.71,0,0,0,3.6,2.39s-2.23,5.83-4.19,7.35a4.32,4.32,0,0,1-3,.92c-2.77-1.69-10.43-6.6-12.82-10.5C88.64,241.32,89.34,230.71,92.28,227Z" style="fill:#263238;stroke:#263238;stroke-linecap:round;stroke-linejoin:round"></path><path d="M91.57,269.63s-8.07,5.28-10.24,9.31-7.45,41.88-8.07,45.92,8.85,32.43,8.85,32.43-.78,6.5,0,10,3.09,5.54,4.26,5.74,2.16-3.33,2.16-3.33c.78.78,1.76-.2,1.76-1.17s.59-8,.39-9-1.07-4.23-1.07-4.23l2-24.88Z" style="fill:#fff;stroke:#263238;stroke-linecap:round;stroke-linejoin:round"></path><path d="M74,321.34a30.09,30.09,0,0,0,10.27,2.2c5.14,0,6.6-.73,6.6-.73l.25-6.6s-11.74,0-13-.49-3.43-1.22-3.43-1.22Z" style="fill:#92E3A9;stroke:#263238;stroke-linecap:round;stroke-linejoin:round"></path><path d="M81.33,278.94c-1.67,3.09-5.15,26-7,38.41a44.27,44.27,0,0,0,17.21,2V269.63S83.5,274.91,81.33,278.94Z" style="fill:#92E3A9;stroke:#263238;stroke-linecap:round;stroke-linejoin:round"></path><line x1="86.58" y1="303.1" x2="79.57" y2="298.78" style="fill:#92E3A9;stroke:#263238;stroke-linecap:round;stroke-linejoin:round"></line><line x1="82.25" y1="305.58" x2="87.19" y2="304.96" style="fill:#92E3A9;stroke:#263238;stroke-linecap:round;stroke-linejoin:round"></line><path d="M88.13,360.33a5.3,5.3,0,0,1-1.37,2.55l-1,.78-.58,3.53s.39,2.15.58,3.32" style="fill:none;stroke:#263238;stroke-linecap:round;stroke-linejoin:round"></path><line x1="88.53" y1="369.73" x2="88.33" y2="364.64" style="fill:none;stroke:#263238;stroke-linecap:round;stroke-linejoin:round"></line><path d="M87.94,314.91c-.38-13.72-3.39-25.25-3.62-27.5-.26-2.65-.94-9.39,4.06-15.26A34.84,34.84,0,0,1,97,266c1.77-.53,3.13-.78,3.13-.78l-.89-.28a35.85,35.85,0,0,1,4.77-1.66c4.17-1.11,15.27-1.67,18.6,1.39,0,0,9.62,3,14.35,6.44a20.18,20.18,0,0,1,4.3,10.35c.5,5.51,1.48,32.15,1.84,42.21.08,2.28.26,4.53.54,6.79.63,5,1.44,22.16,1.44,22.16s-10.53,3.64-27.47,3.09-27.27-4.9-27.27-4.9l-2.49-1.32s0-16.27,0-19C87.88,325.16,88,315,87.94,314.91Z" style="fill:#92E3A9;stroke:#263238;stroke-linecap:round;stroke-linejoin:round"></path><path d="M118,304.31a23.23,23.23,0,0,0,2.63,3.84" style="fill:#92E3A9;stroke:#263238;stroke-linecap:round;stroke-linejoin:round"></path><path d="M110.26,282.56a106.33,106.33,0,0,0,6.34,19" style="fill:#92E3A9;stroke:#263238;stroke-linecap:round;stroke-linejoin:round"></path><path d="M110.89,294.44c.67,1.28,1.29,2.44,1.78,3.33" style="fill:#92E3A9;stroke:#263238;stroke-linecap:round;stroke-linejoin:round"></path><path d="M104.94,282.8s2.12,4.24,4.29,8.46" style="fill:#92E3A9;stroke:#263238;stroke-linecap:round;stroke-linejoin:round"></path><path d="M129.31,267.06s-4.06-5.81-4.89-6.36-17.67-2.34-21.28-1.23S97,266,97,266,114.87,264.83,129.31,267.06Z" style="fill:#fff;stroke:#263238;stroke-linecap:round;stroke-linejoin:round"></path><path d="M132.87,296.85,149,311.12s8.68,6.2,12.1,5c3-1.1,29.86-24.81,36.1-30.34v0l2.43-1.38s3.47,0,4.48-.64,2.52-1.85,2.52-1.85h.84c.84,0,1.35-1.18,1.69-2.36s1.34-4.54,1-5.38-4.72-3.71-4.72-3.71,1.18-1.68,1.69-2.35,2.18-2.53,2-4.21-2-2.53-3.54-.67-9.09,7.57-10.1,9.59c-.71,1.41-1.74,3.69-2.31,4.93l-30.56,16.93s-17.69-20.78-19.55-22-15.68-5.4-15.68-5.4" style="fill:#fff;stroke:#263238;stroke-linecap:round;stroke-linejoin:round"></path><path d="M132.87,296.85,149,311.12s8.68,6.2,12.1,5c1.2-.44,6.23-4.5,12.22-9.57a24.57,24.57,0,0,0-1.57-8,15.88,15.88,0,0,0-4.17-6.57l-4.93,2.73s-17.69-20.78-19.55-22-15.68-5.4-15.68-5.4" style="fill:#92E3A9;stroke:#263238;stroke-linecap:round;stroke-linejoin:round"></path><path d="M164.58,292.6s.92-1.24,3.58,2.07,4,11.06,4,12.16,1.77.66,2.87-.66,4.64-1.77,5.09-5.31-1.11-8.4-3.1-11.49-1.77-3.1-3.76-2.66S165.21,291,164.58,292.6Z" style="fill:#92E3A9;stroke:#263238;stroke-linecap:round;stroke-linejoin:round"></path><path d="M162.66,294.67s2.05,2.87,1.23,8.43" style="fill:#92E3A9;stroke:#263238;stroke-linecap:round;stroke-linejoin:round"></path><path d="M166,300.22s.82,2.06-.83,6.6" style="fill:#92E3A9;stroke:#263238;stroke-linecap:round;stroke-linejoin:round"></path><path d="M206,281.68a8.24,8.24,0,0,0,.67-3.2" style="fill:#fff;stroke:#263238;stroke-linecap:round;stroke-linejoin:round"></path></g></svg>
